<?xml version="1.0" encoding="UTF-8"?>
<svg id="Layer_1" data-name="Layer 1" xmlns="http://www.w3.org/2000/svg" viewBox="0 0 343.12 188.36">
  <defs>
    <style>
      .cls-1, .cls-2 {
        fill: #fff;
      }

      .cls-2 {
        font-family: STIXTwoText, 'STIX Two Text';
        font-size: 13.95px;
        font-variation-settings: 'wght' 400;
      }
    </style>
  </defs>
  <g>
    <path class="cls-1" d="M72,92.42c-8.06,17.51-12.47,26.39-20.42,43.96l-3.62,6.23c-.17.29-.51.98-.5,1.5,0,.29.12.52.35.63.17.06.29.11.46.11.52,0,.68-.58.97-1.16.79-1.79,1.69-3.29,2.54-5.01,8.34-18.49,13.2-27.95,21.78-46.32.34-.75,1.31-1.27,2.11-1.34,4.65-.5,9.29-1.05,14-1.15.17,0,.4.05.63.05.34,0,.57-.12.57-.52-.06-.4-.35-.46-.69-.45h-1.61c-3.9.05-7.75.36-11.59.68-.29.06-.63.12-.97.12-.17,0-.4-.05-.63-.11,4.11-9.5,14.17-29.04,14.08-39.43v-.75c-.14-2.52-1.37-5.15-4.01-5.13-.29,0-.57.06-.86.12-5.44.96-15.51,12.12-18.58,15.82-8.64,10.4-16.7,21.26-23.49,32.97-.4.69-.85,1.04-1.65,1.22-7.45,1.32-14.72,3.39-21.82,5.98-.29.12-.52.18-.74.18-.17,0-.34-.05-.52-.11-.17-.06-.29-.11-.46-.11-.69,0-1.14.76-1.14,1.44,0,.63.35,1.26,1.16,1.54.17.06.34.05.57.05,1.03,0,2.41-.54,3.38-.89,5.72-2.06,11.56-3.77,17.46-5.14.23-.06.52-.18.74-.18.11,0,.23.06.4.11-.11.52-.39.86-.62,1.21-2.26,3.81-10.25,17.47-11.48,21.04-.11.35-.17.63-.16.92.01,1.38,1.17,2.23,2.31,2.22.57,0,1.09-.18,1.55-.59,1.25-1.22,2.27-2.6,2.72-4.33.11-.35.11-.63.11-.8,0-.86-.64-.74-.64-1.37,0-.17.05-.4.22-.81,1.97-4.49,7.18-13.66,9.67-17.64.45-.75,1.02-1.04,1.83-1.22,3.15-.66,23.44-4.38,26.6-4.41h.23s0,.11,0,.11c0,.29-.11.52-.22.75ZM45.77,93.5c.79-1.9,1.69-3.4,2.6-4.96,5.89-10.15,12.64-19.68,20.37-28.46,3.3-3.76,9.61-10.41,14.01-12.97,1.09-.58,1.89-.88,2.58-.88,1.72-.01,2.31,1.76,2.33,3.94.02,2.76-.81,6.26-1.2,7.7-2.17,8.51-9.22,23.03-13,31.27-.22.63-.57.87-1.2.93-9,.99-17.55,2.15-26.49,3.43Z"/>
    <path class="cls-1" d="M241.21,99.36c.8,0,1.37-.76,1.37-1.56,0-.29-.06-.52-.18-.8-.14-.25-.37-.47-.63-.68-1.21-.99-3.43-1.57-4.62-2.03-.24-.09-.49-.17-.75-.26-2.06-.7-4.56-1.38-7.42-1.97-.32-.06-.66-.11-.99-.17-.62-.11-1.24-.23-1.88-.33-2.38-.38-4.9-.68-7.53-.92-.62-.06-1.24-.11-1.88-.16-4.66-.36-9.63-.52-14.79-.48-.56,0-1.11.01-1.67.02-.62,0-1.25.02-1.87.04-2.48.06-4.99.16-7.52.3-.62.03-1.25.07-1.87.11-1.12.07-2.25.15-3.37.23-.62.05-1.25.1-1.87.15-2.52.21-5.05.45-7.57.73-.62.07-1.25.14-1.87.21-.35.04-.7.08-1.05.12-.86.1-1.71.21-2.56.32-5.06.66-10.05,1.45-14.84,2.36-.68.13-1.37.26-2.04.39-1.05.21-2.08.42-3.1.64-.63.13-1.25.27-1.87.41-2.61.58-5.14,1.19-7.56,1.84-.63.17-1.25.34-1.87.51-3.29.92-6.38,1.9-9.18,2.93-.99-1.6-3.97-1.69-6.9-1.89-2.37-.22-4.78-.53-5.59-1.48-.15-.18-.25-.37-.28-.6v-.11c0-.34.1-.71.27-1.1,1.39-3.2,8.03-7.81,10.85-7.83.57,0,.98.16,1.15.56.52,1.03,1.04,1.43,1.56,1.42.92,0,1.6-1.51,1.59-2.37,0-.17,0-.29-.06-.4-.35-1.09-1.8-2.22-3-2.39-.11,0-.29-.05-.4-.05-3.5.03-11.53,5.85-13.51,10.46-.29.68-.45,1.33-.45,1.93,0,.05.01.12.02.18-.34.29-.87.83-1.55,1.51-2.68,2.7-7.59,7.57-11.83,7.61-.75,0-1.49-.16-2.19-.5-1.15-.62-1.46-2.8-1.48-5.04-.02-1.84.14-3.73.13-4.82v-.23c-.07-1.15-.53-1.78-1.34-1.77-.34,0-.75.12-1.2.41-1.94,1.22-8.26,7.07-10.72,9.21,0-.69.16-1.15.45-1.55,1.24-2.42,3.28-5.82,4.12-8.18.06-.12.05-.29.05-.46,0-.57-.35-1.2-.99-1.2-.52,0-1.2.41-2,1.51-2.55,3.41-4.65,7.04-6.22,10.96-.28.69-.56,1.5-.56,2.19s.24,1.26.87,1.66c.29.17.58.28.86.28,1.15,0,2.23-1.34,3.2-2.26,3.47-3.24,7.01-6.54,10.48-9.84.4-.35.8-.58,1.43-1.1-.05,1.09-.1,1.9-.09,2.7s-.04,1.84-.03,2.87c.02,2.24.32,4.65,2.28,5.61.75.4,1.55.56,2.42.55,4.33-.04,9.39-4.64,12.6-8.05.51-.54.97-1.05,1.38-1.51,0,.01,0,.02,0,.03.17.59.6,1.06,1.19,1.44,3.22,2.05,11.48,1.28,11.87,2.24h-.06c-6.92,2.53-14.98,7.18-18.88,13.93-1.07,1.9-1.58,3.57-1.57,4.95.02,2.47,1.58,4.06,4.34,4.04,1.15,0,2.47-.31,4.01-.95,6.18-2.52,11.81-8.65,14.17-14.92.62-1.67.84-2.93.83-3.91-.02-1.89-.77-2.69-.77-2.86,2.65-1.02,5.58-1.99,8.73-2.9.61-.18,1.24-.36,1.87-.53,2.41-.67,4.94-1.3,7.56-1.9.62-.14,1.24-.28,1.87-.42,1.19-.26,2.39-.51,3.62-.75.68-.13,1.36-.27,2.04-.39,4.39-.83,8.98-1.55,13.66-2.16.85-.11,1.7-.22,2.56-.32.57-.07,1.15-.13,1.72-.2.62-.07,1.25-.14,1.87-.2,2.51-.26,5.04-.49,7.57-.67.62-.05,1.25-.09,1.87-.13,1.12-.07,2.25-.14,3.37-.2.62-.03,1.25-.06,1.87-.09,2.52-.11,5.03-.18,7.52-.21.17,0,.34,0,.51,0,.46,0,.91,0,1.37,0,5.65-.01,11.18.21,16.46.68.63.06,1.26.11,1.88.18,2.58.27,5.1.6,7.53,1.01.63.11,1.25.22,1.88.34.72.13,1.44.26,2.14.4,3.11.66,7.08,2.18,9.34,4.69.64.68,1.21.97,1.73.96ZM129.81,106.7c-1.78,6.5-7.98,13.73-14.27,16.19-1.2.47-2.29.71-3.21.72-2.01.02-3.28-.95-3.29-2.9,0-1.15.44-2.64,1.51-4.49,3.34-5.77,12.65-11.53,18.72-13.47.52.8.7,1.66.71,2.46,0,.52-.05,1.03-.16,1.49Z"/>
    <path class="cls-1" d="M176.36,114.01l7.58-.06-.17-20.33c-2.52.19-5.05.42-7.57.68l.16,19.71Z"/>
    <path class="cls-1" d="M163.18,102.41l5.29-7.18c-3.69.5-7.32,1.08-10.85,1.73l4.06,5.46h1.49Z"/>
    <path class="cls-1" d="M183.73,88.95l-.12-15.18-8.67.07-12.43,17.38-12.71-17.17-8.72.07.18,21.8c2.43-.64,4.95-1.25,7.56-1.83l-.07-9.08,5.86,7.88c5.65-1.09,11.59-2.02,17.63-2.77l3.89-5.27.04,4.82c2.52-.28,5.05-.52,7.57-.72Z"/>
    <path class="cls-1" d="M148.86,98.76c-2.62.6-5.15,1.24-7.56,1.91l.11,13.63,7.58-.06-.13-15.48Z"/>
    <path class="cls-1" d="M198.25,73.66l-7.52.06.12,14.75c2.53-.14,5.04-.24,7.52-.3l-.12-14.51Z"/>
    <path class="cls-1" d="M225.97,73.43l-7.52.06.12,15.26c2.64.24,5.17.54,7.53.91l-.13-16.23Z"/>
    <path class="cls-1" d="M218.64,96.5c.06,6.89-3.47,11.11-9.72,11.16-6.26.05-10.42-3.76-10.48-10.99l-.03-3.69c-2.48.03-4.99.1-7.52.21l.03,3.54c.1,12.11,8.35,17.9,18,17.82,10.1-.08,17.34-6.23,17.24-18.11v-1.58c-2.4-.41-4.92-.75-7.54-1.02l.02,2.66Z"/>
    <path class="cls-1" d="M249.4,88.79c-4.82-.53-8.97-1.48-8.99-4.98-.02-2.98,2.65-5.36,8.28-5.41,4.36-.04,8.17,2.11,9.56,4.4l6-3.15c-3.09-6.17-9.59-7.9-15.85-7.85-7.4.12-15.52,3.57-15.46,11.83.03,4.25,1.76,6.95,4.41,8.73,1.5,1.01,3.3,1.72,5.28,2.24,1.94.51,4.04.83,6.19,1.07,5.34.53,9.31,2.05,9.35,5.84.04,4.36-4.43,6.06-9.19,6.1-4.88.04-9.54-1.87-11.36-6.28l-6.29,3.32c3.04,7.32,9.38,9.79,17.59,9.73,8.95-.07,16.84-3.98,16.77-12.94-.08-9.58-7.9-11.7-16.29-12.67Z"/>
    <rect class="cls-1" x="271.54" y="72.97" width="7.52" height="40.18" transform="translate(-.75 2.26) rotate(-.47)"/>
    <path class="cls-1" d="M316.5,102.53c-2.62,2.66-6.57,4.13-10.07,4.16-9.93.08-13.83-6.83-13.94-13.49-.11-6.71,4.02-13.98,13.72-14.06,3.5-.03,7.07,1.15,9.73,3.71l5.01-4.92c-4.16-4.04-9.35-6.06-14.8-6.02-14.52.12-21.26,10.85-21.12,21.35.14,10.45,6.54,20.67,21.46,20.54,5.8-.05,11.12-1.99,15.22-6.09l-5.21-5.18Z"/>
    <path class="cls-1" d="M174.48,142.79c-5.88,9.42-14.26,19.11-25.5,26.94-5.61,3.9-11.88,7.34-18.7,10.08-6.81,2.75-14.22,4.66-21.93,5.72-1.93.29-3.89.41-5.85.6-1.97.06-3.96.25-5.94.2-1.01,0-2.02-.01-3.04-.02-1.01-.02-2-.1-3.01-.15-2-.07-4.02-.34-6.05-.54-4.04-.55-8.11-1.26-12.11-2.38-2.02-.48-3.99-1.18-6-1.8l-2.96-1.09c-.99-.35-1.97-.74-2.94-1.18-15.59-6.52-29.78-17.75-39.91-32.24-5.05-7.25-9.1-15.26-11.94-23.73-1.43-4.23-2.46-8.59-3.28-12.99-.78-4.41-1.17-8.88-1.36-13.36.02-2.17-.09-4.59.06-6.75.05-2.21.29-4.44.5-6.67.56-4.44,1.33-8.85,2.51-13.16,2.33-8.62,5.9-16.85,10.51-24.39,9.25-15.07,22.76-27.11,37.93-34.55.94-.49,1.89-.94,2.86-1.35l2.89-1.26c1.96-.73,3.89-1.55,5.88-2.15,3.93-1.35,7.95-2.3,11.95-3.09,2.01-.33,4.01-.72,6.02-.9,1-.11,2-.25,3-.33,1-.07,2-.13,3-.2l1.47-.09,1.51-.02c1-.01,2-.03,3-.04,1.97.08,3.91.09,5.85.26,7.76.6,15.27,2.07,22.23,4.41,6.97,2.33,13.43,5.39,19.26,8.95,11.68,7.14,20.63,16.31,27.05,25.37,4.35,6.09,7.51,12.17,9.84,17.82h.14c-.6-1.46-1.24-2.94-1.94-4.46-2.03-4.38-4.6-8.95-7.78-13.55-6.33-9.18-15.24-18.45-26.85-25.93-5.81-3.71-12.29-6.94-19.31-9.44-7.02-2.52-14.61-4.16-22.51-4.93-1.97-.21-3.99-.26-6-.38-2.01.02-3.96-.09-6.05.04-1.02.05-2.04.09-3.07.14-1.02.06-2.05.18-3.07.27-2.06.15-4.11.51-6.18.8-4.11.73-8.26,1.62-12.32,2.93-2.06.58-4.05,1.37-6.09,2.09-1,.41-2,.82-3,1.24-1.01.4-2,.85-2.97,1.33-7.9,3.67-15.39,8.56-22.17,14.45-6.75,5.93-12.73,12.91-17.64,20.67C4.6,59.48-.51,78.3.04,96.98c.57,18.68,6.78,37.16,17.57,52.04,5.36,7.45,11.74,14.07,18.83,19.58,7.11,5.48,14.89,9.92,22.98,13.11,1,.42,2.02.81,3.05,1.15,1.02.35,2.05.71,3.06,1.06,2.07.59,4.11,1.27,6.2,1.72,4.14,1.06,8.33,1.71,12.47,2.19,2.08.17,4.14.4,6.23.43,1.03.03,2.08.09,3.1.09,1.01-.01,2.03-.03,3.03-.04,2.06,0,4.06-.22,6.08-.32,2-.24,3.99-.41,5.95-.73,7.84-1.24,15.32-3.33,22.17-6.26,6.86-2.91,13.13-6.52,18.71-10.57,11.15-8.15,19.49-17.93,25.27-27.47,3.91-6.44,6.66-12.73,8.63-18.54h-.14c-1.99,5.78-4.78,12.04-8.76,18.38Z"/>
  </g>
  <text class="cls-2" transform="translate(321.71 71.48) scale(1.02 1)"><tspan x="0" y="0">TM</tspan></text>
</svg>